<?xml version="1.0" standalone="no"?><!DOCTYPE svg PUBLIC "-//W3C//DTD SVG 1.1//EN" "http://www.w3.org/Graphics/SVG/1.1/DTD/svg11.dtd"><svg t="1695796740270" class="icon" viewBox="0 0 1444 1024" version="1.1" xmlns="http://www.w3.org/2000/svg" p-id="1943" width="50.765625" height="36" xmlns:xlink="http://www.w3.org/1999/xlink"><path d="M1444.647303 373.908714c-101.975104-21.244813-203.950207-25.493776-305.925311-50.987552-76.481328-21.244813-148.713693-50.987552-220.946058-80.730291-80.73029-33.991701-148.713693-80.73029-212.448133-135.966805-59.485477-50.987552-131.717842-84.979253-208.19917-101.975103-12.746888-4.248963-29.742739-4.248963-33.991702 8.497925 0 4.248963 33.991701 16.995851 33.991702 21.244813 29.742739 16.995851 59.485477 38.240664 63.73444 72.232365 8.497925 33.991701-25.493776 55.236515-50.987552 63.73444-84.979253 29.742739-178.456432 46.738589-259.186722 84.979253-59.485477 25.493776-118.970954 50.987552-161.460581 101.975104C42.489627 407.900415 8.497925 475.883817 4.248963 543.86722c-4.248963 33.991701-4.248963 72.232365 8.497925 106.224066 12.746888 29.742739 38.240664 46.738589 55.236514 67.983403 21.244813 25.493776 21.244813 59.485477 38.240664 84.979253 21.244813 29.742739 63.73444 59.485477 84.979254 50.987552-4.248963-12.746888-25.493776-42.489627-29.742739-55.236515h12.746888c72.232365 4.248963 114.721992 38.240664 148.713693 101.975104 25.493776 50.987552 63.73444 89.228216 123.219917 123.219917-123.219917-186.954357-89.228216-335.66805 101.975104-463.136929-50.987552 4.248963-89.228216 21.244813-123.219917 42.489626-29.742739 16.995851-55.236515 33.991701-80.730291 55.236515-21.244813 16.995851-50.987552 42.489627-80.73029 42.489626s-63.73444-12.746888-84.979253-29.742738c8.497925-4.248963 42.489627-25.493776 50.987551-21.244814-4.248963-4.248963-12.746888-8.497925-16.99585-8.497925-21.244813-8.497925-50.987552-8.497925-63.73444-33.991701-8.497925-21.244813 12.746888-42.489627 25.493776-55.236515 42.489627-50.987552 106.224066-67.983402 169.958506-72.232365 140.215768-8.497925 280.431535-12.746888 416.39834-25.493776 59.485477-4.248963 114.721992-8.497925 174.207469-12.746888 33.991701-4.248963 67.983402-8.497925 97.726141-12.746888 16.995851-4.248963 29.742739-8.497925 42.489627-12.746888 4.248963 0 25.493776-12.746888 25.493776-12.746888-16.995851-12.746888-50.987552 0-59.485477-21.244813 4.248963 8.497925 21.244813 0 29.742738 0 16.995851-4.248963 29.742739-4.248963 46.738589-4.248963 46.738589 0 97.726141 0 152.962656 4.248963 42.489627 4.248963 72.232365 8.497925 114.721992 8.497925 4.248963-4.248963 59.485477-16.995851 59.485477-16.99585z" fill="#1296db" p-id="1944"></path></svg>